<svg width="20" height="21" viewBox="0 0 20 21" fill="none" xmlns="http://www.w3.org/2000/svg">
<path d="M18.75 0.75L17.75 1.75M0.75 0.75L1.75 1.75M18.75 14.75L17.75 13.75M0.75 14.75L1.75 13.75M6.75 16.75H12.75M7.75 19.75H11.75M9.75 1.75C5.75 1.75 3.702 3.7 3.75 6.75C3.773 8.237 4.25 9.25 5.25 10.25C6.25 11.25 6.75 11.75 6.75 13.75H12.75C12.75 11.75 13.25 11.25 14.25 10.25C15.25 9.25 15.727 8.237 15.75 6.75C15.798 3.7 13.75 1.75 9.75 1.75Z" stroke="#EBEBEB" stroke-width="1.5" stroke-linecap="round" stroke-linejoin="round"/>
</svg>
