<svg width="20" height="20" viewBox="0 0 20 20" fill="none" xmlns="http://www.w3.org/2000/svg">
<path d="M5 0.625C5 0.45924 4.93415 0.300269 4.81694 0.183058C4.69973 0.065848 4.54076 0 4.375 0C4.20924 0 4.05027 0.065848 3.93306 0.183058C3.81585 0.300269 3.75 0.45924 3.75 0.625V3.75H0.625C0.45924 3.75 0.300269 3.81585 0.183058 3.93306C0.065848 4.05027 0 4.20924 0 4.375C0 4.54076 0.065848 4.69973 0.183058 4.81694C0.300269 4.93415 0.45924 5 0.625 5H3.75V13.125C3.75 13.9538 4.07924 14.7487 4.66529 15.3347C5.25134 15.9208 6.0462 16.25 6.875 16.25H15V19.375C15 19.5408 15.0658 19.6997 15.1831 19.8169C15.3003 19.9342 15.4592 20 15.625 20C15.7908 20 15.9497 19.9342 16.0669 19.8169C16.1842 19.6997 16.25 19.5408 16.25 19.375V16.25H19.375C19.5408 16.25 19.6997 16.1842 19.8169 16.0669C19.9342 15.9497 20 15.7908 20 15.625C20 15.4592 19.9342 15.3003 19.8169 15.1831C19.6997 15.0658 19.5408 15 19.375 15H6.875C6.37772 15 5.90081 14.8025 5.54917 14.4508C5.19754 14.0992 5 13.6223 5 13.125V0.625ZM15 6.875V14H16.25V6.875C16.25 6.0462 15.9208 5.25134 15.3347 4.66529C14.7487 4.07924 13.9538 3.75 13.125 3.75H6V5H13.125C13.6223 5 14.0992 5.19754 14.4508 5.54917C14.8025 5.90081 15 6.37772 15 6.875Z" fill="#F2F2F7"/>
</svg>
