<svg width="14" height="14" viewBox="0 0 14 14" fill="none" xmlns="http://www.w3.org/2000/svg">
<path fill-rule="evenodd" clip-rule="evenodd" d="M13.3972 6.69862C13.3972 7.04745 13.1141 7.33056 12.7653 7.33056H11.5014C11.3338 7.33056 11.1731 7.26398 11.0545 7.14547C10.936 7.02696 10.8695 6.86622 10.8695 6.69862C10.8695 6.53101 10.936 6.37028 11.0545 6.25176C11.1731 6.13325 11.3338 6.06667 11.5014 6.06667H12.7653C13.1141 6.06667 13.3972 6.34978 13.3972 6.69862ZM10.8209 13.008C10.7724 13.1228 10.6913 13.2209 10.5876 13.2901C10.4839 13.3593 10.3622 13.3966 10.2375 13.3972H3.15972C3.03472 13.3973 2.91252 13.3602 2.80857 13.2908C2.70463 13.2213 2.62361 13.1226 2.57577 13.0071C2.52793 12.8917 2.51542 12.7646 2.53981 12.642C2.5642 12.5194 2.62441 12.4068 2.71281 12.3184L6.25171 8.77948C6.31039 8.72079 6.38006 8.67422 6.45674 8.64245C6.53343 8.61069 6.61561 8.59433 6.69862 8.59433C6.78162 8.59433 6.86381 8.61069 6.94049 8.64245C7.01717 8.67422 7.08684 8.72079 7.14553 8.77948L10.6844 12.3184C10.7727 12.4068 10.8328 12.5194 10.8571 12.642C10.8814 12.7645 10.8688 12.8925 10.8209 13.008ZM10.6844 1.07785C10.7725 0.989413 10.8324 0.876889 10.8566 0.75446C10.8808 0.632031 10.8682 0.50518 10.8204 0.3899C10.7726 0.27462 10.6917 0.176074 10.588 0.106686C10.4843 0.037298 10.3623 0.000175895 10.2375 1.09915e-08H3.15972C3.03472 -2.32982e-05 2.91252 0.037027 2.80857 0.106464C2.70463 0.175902 2.62361 0.274607 2.57577 0.390094C2.52793 0.505582 2.51542 0.632663 2.53981 0.755264C2.5642 0.877865 2.62441 0.990477 2.71281 1.07886L6.25171 4.61775C6.49842 4.86446 6.89882 4.86446 7.14553 4.61775L10.6844 1.07785ZM9.14146 7.33056C9.30907 7.33056 9.4698 7.26398 9.58832 7.14547C9.70683 7.02696 9.77341 6.86622 9.77341 6.69862C9.77341 6.53101 9.70683 6.37028 9.58832 6.25176C9.4698 6.13325 9.30907 6.06667 9.14146 6.06667H7.87757C7.70997 6.06667 7.54923 6.13325 7.43072 6.25176C7.31221 6.37028 7.24563 6.53101 7.24563 6.69862C7.24563 6.86622 7.31221 7.02696 7.43072 7.14547C7.54923 7.26398 7.70997 7.33056 7.87757 7.33056H9.14146ZM6.15059 6.69862C6.15059 7.04745 5.86748 7.33056 5.51865 7.33056H4.25476C4.08716 7.33056 3.92642 7.26398 3.80791 7.14547C3.68939 7.02696 3.62281 6.86622 3.62281 6.69862C3.62281 6.53101 3.68939 6.37028 3.80791 6.25176C3.92642 6.13325 4.08716 6.06667 4.25476 6.06667H5.51865C5.86849 6.06667 6.15059 6.34978 6.15059 6.69862ZM1.89583 7.33056C2.06344 7.33056 2.22417 7.26398 2.34269 7.14547C2.4612 7.02696 2.52778 6.86622 2.52778 6.69862C2.52778 6.53101 2.4612 6.37028 2.34269 6.25176C2.22417 6.13325 2.06344 6.06667 1.89583 6.06667H0.631945C0.464343 6.06667 0.303605 6.13325 0.185092 6.25176C0.0665797 6.37028 0 6.53101 0 6.69862C0 6.86622 0.0665797 7.02696 0.185092 7.14547C0.303605 7.26398 0.464343 7.33056 0.631945 7.33056H1.89583Z" fill="#F2F2F7"/>
</svg>
