<svg width="16" height="20" viewBox="0 0 16 20" fill="none" xmlns="http://www.w3.org/2000/svg">
<path fill-rule="evenodd" clip-rule="evenodd" d="M2.66454e-07 13.6777V6.00271C-0.000162341 5.68288 0.0741023 5.36767 0.216555 5.08357C0.359008 4.79947 0.565489 4.55478 0.818652 4.37005C1.07182 4.18532 1.36427 4.06595 1.67144 4.02197C1.97861 3.97799 2.29153 4.01068 2.58391 4.11729V3.3378C2.58386 3.01177 2.66114 2.69067 2.80902 2.4025C2.9569 2.11434 3.17088 1.86786 3.43232 1.68455C3.69375 1.50125 3.9947 1.3867 4.30891 1.35087C4.62312 1.31505 4.94106 1.35904 5.235 1.47903C5.45851 0.630252 6.21172 0 7.10834 0C8.00496 0 8.74912 0.623589 8.98168 1.47903C9.27562 1.35904 9.59356 1.31505 9.90777 1.35087C10.222 1.3867 10.5229 1.50125 10.7844 1.68455C11.0458 1.86786 11.2598 2.11434 11.4077 2.4025C11.5555 2.69067 11.6328 3.01177 11.6328 3.3378V9.72027L11.8214 9.52573C12.2899 9.06865 12.9129 8.81809 13.5577 8.82734C14.2026 8.83658 14.8186 9.1049 15.2746 9.57523C15.7306 10.0456 15.9908 10.6808 15.9998 11.3459C16.0087 12.011 15.7658 12.6535 15.3226 13.1367L10.4648 18.1467C9.60915 19.0311 8.51823 19.6336 7.33026 19.878C6.14229 20.1225 4.9107 19.9978 3.79148 19.5198C2.67226 19.0418 1.71576 18.232 1.04311 17.193C0.370461 16.1539 0.0119287 14.9323 0.0129198 13.683L2.66454e-07 13.6777ZM7.10576 1.33912C7.27708 1.33912 7.44139 1.40931 7.56253 1.53425C7.68368 1.65919 7.75173 1.82865 7.75173 2.00535V8.66763C7.75173 8.84432 7.81979 9.01378 7.94094 9.13872C8.06208 9.26366 8.22639 9.33385 8.39771 9.33385C8.56904 9.33385 8.73334 9.26366 8.85449 9.13872C8.97563 9.01378 9.04369 8.84432 9.04369 8.66763V3.3378C9.04369 3.16111 9.11175 2.99165 9.23289 2.86671C9.35404 2.74177 9.51834 2.67157 9.68967 2.67157C9.86099 2.67157 10.0253 2.74177 10.1464 2.86671C10.2676 2.99165 10.3356 3.16111 10.3356 3.3378V11.3325C10.3354 11.4645 10.3732 11.5935 10.4441 11.7033C10.5151 11.8131 10.6161 11.8987 10.7343 11.9492C10.8524 11.9997 10.9825 12.0129 11.108 11.9871C11.2334 11.9613 11.3486 11.8976 11.439 11.8042L12.7309 10.4718C12.8402 10.3586 12.97 10.2687 13.113 10.2074C13.256 10.1461 13.4094 10.1146 13.5642 10.1146C13.7191 10.1146 13.8724 10.1461 14.0155 10.2074C14.1585 10.2687 14.2883 10.3586 14.3976 10.4718C14.5073 10.5844 14.5944 10.7184 14.6539 10.8659C14.7133 11.0133 14.7439 11.1715 14.7439 11.3312C14.7439 11.4909 14.7133 11.6491 14.6539 11.7966C14.5944 11.944 14.5073 12.078 14.3976 12.1906L9.5398 17.2007C8.86453 17.8991 8.00354 18.3752 7.06581 18.5687C6.12808 18.7622 5.15576 18.6645 4.2719 18.2879C3.38803 17.9113 2.63237 17.2727 2.10053 16.453C1.5687 15.6333 1.2846 14.6693 1.2842 13.683V6.00804C1.2842 5.83135 1.35226 5.66189 1.47341 5.53695C1.59455 5.41201 1.75886 5.34182 1.93018 5.34182C2.10151 5.34182 2.26581 5.41201 2.38696 5.53695C2.5081 5.66189 2.57616 5.83135 2.57616 6.00804V8.67296C2.57616 8.84965 2.64422 9.01911 2.76536 9.14405C2.88651 9.26899 3.05081 9.33918 3.22214 9.33918C3.39346 9.33918 3.55777 9.26899 3.67891 9.14405C3.80006 9.01911 3.86812 8.84965 3.86812 8.67296V3.34313C3.86812 3.16644 3.93617 2.99698 4.05732 2.87204C4.17846 2.7471 4.34277 2.6769 4.51409 2.6769C4.68542 2.6769 4.84972 2.7471 4.97087 2.87204C5.09201 2.99698 5.16007 3.16644 5.16007 3.34313V8.67296C5.16007 8.84965 5.22813 9.01911 5.34927 9.14405C5.47042 9.26899 5.63473 9.33918 5.80605 9.33918C5.97737 9.33918 6.14168 9.26899 6.26282 9.14405C6.38397 9.01911 6.45203 8.84965 6.45203 8.67296V2.01068C6.45203 1.83398 6.52009 1.66452 6.64123 1.53958C6.76237 1.41464 6.92668 1.34445 7.09801 1.34445L7.10576 1.33912Z" fill="#EBEBEB"/>
</svg>
