<svg width="14" height="20" viewBox="0 0 14 20" fill="none" xmlns="http://www.w3.org/2000/svg">
<path d="M5.17706 13.647L8.96553 15.8401M3.13972 9.64363V5.42148M5.43759 12.1056C5.43759 13.4669 4.35469 14.5705 3.01886 14.5705C1.68304 14.5705 0.60014 13.4669 0.60014 12.1056C0.60014 10.7442 1.68304 9.64061 3.01886 9.64061C4.35469 9.64061 5.43759 10.7442 5.43759 12.1056ZM13.5 17.0355C13.5 18.3969 12.4171 19.5005 11.0813 19.5005C9.74545 19.5005 8.66255 18.3969 8.66255 17.0355C8.66255 15.6742 9.74545 14.5705 11.0813 14.5705C12.4171 14.5705 13.5 15.6742 13.5 17.0355ZM2.05157 0.665273C3.29845 0.176831 4.69778 0.810996 5.17706 2.08172C5.65634 3.35244 5.03407 4.77853 3.78719 5.26697C2.5403 5.75541 1.14097 5.12125 0.661693 3.85053C0.182415 2.5798 0.804682 1.15371 2.05157 0.665273Z" stroke="white"/>
</svg>
