<svg width="16" height="16" viewBox="0 0 16 16" fill="none" xmlns="http://www.w3.org/2000/svg">
<path d="M12.533 12.533C11.719 13.347 10.7169 13.9477 9.61527 14.2819C8.51369 14.616 7.34669 14.6733 6.21766 14.4488C5.08862 14.2242 4.0324 13.7246 3.14255 12.9943C2.25269 12.264 1.55668 11.3256 1.11615 10.2621C0.67562 9.19853 0.504177 8.04277 0.617006 6.89716C0.729835 5.75155 1.12345 4.65144 1.76299 3.69429C2.40254 2.73714 3.26826 1.95248 4.28349 1.40983C5.29871 0.867169 6.43209 0.583262 7.58325 0.583252C10.7395 0.583252 12.6528 2.68714 14.5833 4.86103" stroke="#F2F2F7" stroke-width="1.16667" stroke-linecap="round" stroke-linejoin="round"/>
<path d="M14.5833 1.75V4.86111H11.4721" stroke="#F2F2F7" stroke-width="1.16667" stroke-linecap="round" stroke-linejoin="round"/>
</svg>
