<svg width="19" height="18" viewBox="0 0 19 18" fill="none" xmlns="http://www.w3.org/2000/svg">
<path d="M9.47619 18C8.92063 18 8.3692 17.9588 7.8219 17.8764C7.2746 17.794 6.74666 17.6547 6.23809 17.4586C6.04762 17.3985 5.89301 17.2932 5.77428 17.1428C5.65555 16.9925 5.59587 16.812 5.59524 16.6015C5.59524 16.3459 5.68666 16.1317 5.86952 15.9591C6.05238 15.7865 6.27841 15.6998 6.54762 15.6992L6.88095 15.7444C7.30952 15.8797 7.73428 15.9889 8.15523 16.0719C8.57619 16.1549 9.0165 16.1961 9.47619 16.1955C9.74603 16.1955 9.97238 16.2821 10.1552 16.4553C10.3381 16.6286 10.4292 16.8427 10.4286 17.0977C10.4279 17.3528 10.3368 17.5672 10.1552 17.741C9.97365 17.9149 9.7473 18.0012 9.47619 18ZM13.2857 17.0977C13.0159 17.0977 12.7898 17.0114 12.6076 16.8388C12.4254 16.6662 12.334 16.4517 12.3333 16.1955V12.5865C12.3333 12.3308 12.4248 12.1167 12.6076 11.9441C12.7905 11.7714 13.0165 11.6848 13.2857 11.6842H17.0952C17.3651 11.6842 17.5914 11.7708 17.7743 11.9441C17.9571 12.1173 18.0482 12.3314 18.0476 12.5865C18.047 12.8415 17.9555 13.0559 17.7733 13.2298C17.5911 13.4036 17.3651 13.4899 17.0952 13.4887H15.5714L17.5714 15.3834C17.746 15.5489 17.8375 15.7558 17.8457 16.0042C17.854 16.2526 17.7625 16.4668 17.5714 16.6466C17.3968 16.812 17.1746 16.8947 16.9048 16.8947C16.6349 16.8947 16.4127 16.812 16.2381 16.6466L14.2381 14.7519V16.1955C14.2381 16.4511 14.1467 16.6656 13.9638 16.8388C13.7809 17.012 13.5549 17.0983 13.2857 17.0977ZM3.42857 15.609C3.30159 15.609 3.17873 15.5828 3.06 15.5305C2.94127 15.4782 2.8419 15.4141 2.7619 15.3383C2.23809 14.8571 1.78571 14.3308 1.40476 13.7594C1.02381 13.188 0.714285 12.5789 0.47619 11.9323C0.444444 11.8722 0.428571 11.7669 0.428571 11.6165C0.428571 11.3609 0.52 11.1468 0.702857 10.9741C0.885714 10.8015 1.11175 10.7149 1.38095 10.7143C1.60317 10.7143 1.79365 10.7744 1.95238 10.8947C2.11111 11.015 2.22222 11.1654 2.28571 11.3459C2.47619 11.8722 2.72222 12.3609 3.02381 12.812C3.3254 13.2631 3.68254 13.6842 4.09524 14.0752C4.1746 14.1504 4.24222 14.2442 4.29809 14.3567C4.35397 14.4692 4.38159 14.5859 4.38095 14.7068C4.38095 14.9624 4.28952 15.1768 4.10666 15.3501C3.92381 15.5233 3.69778 15.6096 3.42857 15.609ZM18.0476 9.87969C17.7778 9.87969 17.5517 9.79308 17.3695 9.61984C17.1873 9.44661 17.0959 9.23247 17.0952 8.97744C17.0952 8.54135 17.0517 8.1242 16.9648 7.72601C16.8778 7.32781 16.7625 6.92541 16.619 6.51879C16.5873 6.45864 16.5714 6.35338 16.5714 6.203C16.5714 5.94736 16.6628 5.73323 16.8457 5.5606C17.0286 5.38797 17.2546 5.30135 17.5238 5.30075C17.746 5.30075 17.9365 5.35729 18.0952 5.47037C18.254 5.58345 18.3651 5.72992 18.4286 5.90977C18.6349 6.39097 18.7819 6.89112 18.8695 7.41022C18.9571 7.92932 19.0006 8.45172 19 8.97744C19 9.23308 18.9086 9.44751 18.7257 9.62074C18.5429 9.79398 18.3168 9.88029 18.0476 9.87969ZM0.952381 9.02255C0.682539 9.02255 0.456508 8.93623 0.274285 8.7636C0.0920633 8.59097 0.00063492 8.37654 0 8.12029V7.9624C0.0952381 7.28571 0.261905 6.62406 0.5 5.97744C0.738095 5.33082 1.04762 4.7218 1.42857 4.15037C1.50794 4.03007 1.61905 3.92872 1.7619 3.84631C1.90476 3.76391 2.06349 3.7224 2.23809 3.7218C2.50794 3.7218 2.73428 3.80812 2.91714 3.98075C3.1 4.15338 3.19111 4.36782 3.19047 4.62406C3.19047 4.71428 3.1746 4.80451 3.14286 4.89473C3.11111 4.98496 3.07143 5.06767 3.02381 5.14285C2.70635 5.60902 2.46032 6.10165 2.28571 6.62075C2.11111 7.13984 1.98413 7.66977 1.90476 8.21052C1.87302 8.43608 1.76984 8.62796 1.59524 8.78616C1.42063 8.94435 1.20635 9.02315 0.952381 9.02255ZM15.5238 4.15037C15.3968 4.15037 15.274 4.12391 15.1552 4.07097C15.0365 4.01804 14.9371 3.95428 14.8571 3.8797C14.4444 3.48872 14 3.15037 13.5238 2.86466C13.0476 2.57895 12.5317 2.34586 11.9762 2.16541C11.7857 2.10526 11.627 2 11.5 1.84962C11.373 1.69925 11.3095 1.5188 11.3095 1.30827C11.3095 1.05263 11.4009 0.838496 11.5838 0.665864C11.7667 0.493233 11.9927 0.406616 12.2619 0.406015L12.5952 0.451127C13.2778 0.676691 13.9206 0.969924 14.5238 1.33083C15.127 1.69173 15.6825 2.1203 16.1905 2.61654C16.2698 2.69173 16.3375 2.78586 16.3933 2.89895C16.4492 3.01203 16.4768 3.12842 16.4762 3.24812C16.4762 3.50376 16.3851 3.71819 16.2029 3.89143C16.0206 4.06466 15.7943 4.15097 15.5238 4.15037ZM4.88095 3.02255C4.61111 3.02255 4.38476 2.93624 4.2019 2.76361C4.01905 2.59098 3.92793 2.37654 3.92857 2.1203C3.92857 1.95489 3.97238 1.80451 4.06 1.66917C4.14762 1.53383 4.2546 1.42857 4.38095 1.35338C4.98412 0.992481 5.62698 0.699248 6.30952 0.473684C6.99206 0.24812 7.69047 0.0902255 8.40476 0H8.57142C8.84127 0 9.06761 0.0866166 9.25047 0.25985C9.43333 0.433082 9.52444 0.647218 9.52381 0.902255C9.52381 1.14286 9.44063 1.34586 9.27428 1.51128C9.10793 1.67669 8.90539 1.77443 8.66666 1.80451C8.09523 1.8797 7.53555 2 6.98762 2.16541C6.43968 2.33083 5.92 2.56391 5.42857 2.86466C5.3492 2.90977 5.2619 2.94737 5.16666 2.97744C5.07143 3.00752 4.97619 3.02255 4.88095 3.02255Z" fill="#0091FF"/>
</svg>
