<svg width="18" height="18" viewBox="0 0 18 18" fill="none" xmlns="http://www.w3.org/2000/svg">
<path d="M6.57812 17.2812C6.16146 17.2812 5.80729 17.099 5.51562 16.7344L0.320312 10.3125C0.205729 10.1771 0.122396 10.0443 0.0703125 9.91406C0.0234375 9.78385 0 9.65365 0 9.52344C0 9.22135 0.0989583 8.97396 0.296875 8.78125C0.494792 8.58333 0.747396 8.48438 1.05469 8.48438C1.41406 8.48438 1.71615 8.64583 1.96094 8.96875L6.53906 14.7344L15.5156 0.554688C15.6458 0.351562 15.7812 0.208333 15.9219 0.125C16.0625 0.0416667 16.237 0 16.4453 0C16.7578 0 17.0078 0.09375 17.1953 0.28125C17.388 0.46875 17.4844 0.716146 17.4844 1.02344C17.4844 1.13802 17.4635 1.25781 17.4219 1.38281C17.3854 1.50781 17.3203 1.64062 17.2266 1.78125L7.625 16.7266C7.50521 16.9089 7.35677 17.0469 7.17969 17.1406C7.0026 17.2344 6.80208 17.2812 6.57812 17.2812Z" fill="white" style="mix-blend-mode:plus-darker"/>
</svg>
