<svg width="19" height="15" viewBox="0 0 19 15" fill="none" xmlns="http://www.w3.org/2000/svg">
<path d="M11.6278 11.6278H15.6722V7.58334H14.6611V10.6167H11.6278V11.6278ZM2.52778 6.57223H3.53889V3.53889H6.57223V2.52778H2.52778V6.57223ZM1.63295 14.1556C1.16784 14.1556 0.779232 13.9999 0.467136 13.6884C0.155039 13.377 -0.000671895 12.9881 2.17912e-06 12.5216V1.63396C2.17912e-06 1.16817 0.15605 0.779567 0.468147 0.468145C0.780244 0.156722 1.16851 0.000674075 1.63295 0H16.5671C17.0322 0 17.4204 0.156048 17.7319 0.468145C18.0433 0.780241 18.1993 1.16885 18.2 1.63396V12.5226C18.2 12.9877 18.044 13.3763 17.7319 13.6884C17.4198 14.0005 17.0315 14.1562 16.5671 14.1556H1.63295ZM1.63295 13.1445H16.5671C16.7221 13.1445 16.8647 13.0797 16.9948 12.9503C17.1249 12.8209 17.1896 12.678 17.1889 12.5216V1.63396C17.1889 1.47825 17.1242 1.33534 16.9948 1.20525C16.8653 1.07515 16.7228 1.01044 16.5671 1.01111H1.63295C1.47791 1.01111 1.33534 1.07582 1.20525 1.20525C1.07515 1.33467 1.01044 1.47757 1.01111 1.63396V12.5226C1.01111 12.6777 1.07583 12.8202 1.20525 12.9503C1.33467 13.0804 1.47724 13.1451 1.63295 13.1445Z" fill="#F4F4F4"/>
</svg>
